<svg width="403" height="92" viewBox="0 0 403 92" fill="none" xmlns="http://www.w3.org/2000/svg">
<g clip-path="url(#clip0_1506_22964)">
<path d="M395.099 8.06562V8.06783L395.101 8.06562H399.265L403 4.08812L402.996 0.117242L402.998 0.115031H402.996V0.11282L402.993 0.115031L399.05 0.108398L395.099 3.86923V8.0612L395.097 8.06562H395.099Z" fill="black"/>
<path d="M394.107 0.0864532H394.105V0.0842422L394.102 0.0864532L390.56 0.0820312L386.195 4.31601V8.0481L386.191 8.05252H386.195V8.05473L386.197 8.05252H389.904L394.109 3.65714L394.105 0.0886641L394.107 0.0864532Z" fill="black"/>
<path d="M385.218 0.057875L385.214 0.060086V0.0556641L385.211 0.060086L382.071 0.0556641L377.289 4.76057V8.03721L377.286 8.03942H377.289V8.04163L377.291 8.03942H380.543L385.218 3.22396L385.214 0.0622969L385.218 0.057875Z" fill="black"/>
<path d="M376.327 0.0307891H376.325V0.0285781L376.32 0.0307891L373.582 0.0263672L368.384 5.20663V8.02339L368.38 8.0256H368.384L368.382 8.02781L368.387 8.0256H371.182L376.327 2.79227L376.322 0.0330001L376.327 0.0307891Z" fill="black"/>
<path d="M367.436 0.00221095H367.434V0L367.431 0.00221095L365.091 0L359.478 5.6512V8.01029L359.476 8.0125H359.478V8.01471L359.48 8.0125H361.821L367.436 2.3613L367.434 0.00663286L367.436 0.00221095Z" fill="black"/>
<path d="M402.998 9.06692H402.996V9.06471L402.993 9.06692L399.454 9.0625L395.099 13.2854V17.0153L395.097 17.0175H395.099V17.0197L395.101 17.0175H398.806L403 12.631L402.996 9.06913L402.998 9.06692Z" fill="black"/>
<path d="M403 18.0191H402.996V18.0146L402.993 18.0191L399.86 18.0146L395.099 22.7019V25.9674L395.095 25.9719H395.099V25.9741L395.101 25.9697L398.345 25.9719L403 21.1763L402.996 18.0213L403 18.0191Z" fill="black"/>
<path d="M403 26.969L402.998 26.9712V26.9668L402.993 26.9712L400.266 26.9668L395.099 32.1161V34.9218L395.095 34.924H395.099L395.097 34.9262L395.101 34.924H397.886L403 29.7194L402.998 26.9734L403 26.969Z" fill="black"/>
<path d="M403 35.9212L402.998 35.9234V35.9189L402.996 35.9234L400.672 35.9189L395.097 41.5326V43.874L395.095 43.8762H395.097V43.8806L395.099 43.8762H397.425L403 38.2626L402.998 35.9256L403 35.9212Z" fill="black"/>
<path d="M394.107 9.04446H394.105V9.04225L394.102 9.04446L390.96 9.04004L386.197 13.714V17.0039L386.195 17.0083H386.197V17.0105L386.199 17.0083H389.467L394.109 12.2128L394.105 9.04888L394.107 9.04446Z" fill="black"/>
<path d="M385.218 9.02493H385.214V9.02272L385.211 9.02493L382.464 9.02051L377.295 14.1455V16.9954L377.293 16.9976H377.295V16.9998L377.297 16.9976H380.13L385.218 11.793L385.214 9.02714L385.218 9.02493Z" fill="black"/>
<path d="M376.327 9.00221H376.322V9L376.32 9.00221L373.968 9L368.393 14.5738V16.986L368.391 16.9882H368.393V16.9904L368.395 16.9882H370.791L376.327 11.3746L376.322 9.00663L376.327 9.00221Z" fill="black"/>
<path d="M367.434 8.98268V8.98047L367.429 8.98268L365.475 8.98047L359.491 15.0031V16.9753L359.489 16.9797H359.491V16.9819L359.493 16.9775L361.452 16.9797L367.436 10.9549L367.431 8.98489L367.436 8.98268H367.434Z" fill="black"/>
<path d="M394.109 18.0032H394.105V18.001L394.102 18.0032L391.36 18.001L386.199 23.1149V25.9604L386.197 25.9648H386.199V25.967L386.202 25.9626L389.03 25.9648L394.109 20.7691L394.105 18.0076L394.109 18.0032Z" fill="black"/>
<path d="M394.109 26.9622L394.107 26.9644V26.96L394.102 26.9644L391.759 26.96L386.204 32.5139V34.9172L386.199 34.9216H386.204L386.202 34.9238L386.206 34.9194L388.593 34.9216L394.109 29.3257L394.105 26.9666L394.109 26.9622Z" fill="black"/>
<path d="M394.107 35.9234V35.9189L394.102 35.9234L392.159 35.9189L386.206 41.9151V43.874L386.204 43.8762H386.206V43.8784L386.208 43.8762H388.156L394.109 37.8823L394.105 35.9256L394.109 35.9212L394.107 35.9234Z" fill="black"/>
<path d="M0 12.417H19.5058C24.5453 12.417 28.5001 13.7723 31.3723 16.4807C34.2445 19.1914 35.6806 22.8173 35.6806 27.3608C35.6806 30.6994 34.8549 33.368 33.2014 35.3667C31.548 37.3654 29.3675 38.7738 26.66 39.5962V39.9257C29.9647 40.6929 32.6195 42.1565 34.6244 44.3188C36.6292 46.4812 37.6305 49.5323 37.6305 53.4744C37.6305 56.5941 36.9673 59.3865 35.6388 61.8495C34.3103 64.3125 32.4548 66.2427 30.0723 67.6378C27.6876 69.0329 24.923 69.7316 21.783 69.7316H0V12.417ZM17.8809 37.1332C19.7759 37.1332 21.3877 36.8746 22.7162 36.3528C24.0425 35.8332 25.046 35.0262 25.7223 33.9296C26.3987 32.8352 26.739 31.4135 26.739 29.6602V26.7042C26.739 25.0084 26.4009 23.6133 25.7223 22.5166C25.0438 21.4222 24.0425 20.6152 22.7162 20.0934C21.3877 19.5738 19.7759 19.313 17.8809 19.313H8.53312V37.131H17.8809V37.1332ZM19.1809 62.8334C21.2384 62.8334 22.9731 62.5592 24.3829 62.0131C25.7904 61.467 26.862 60.5893 27.5932 59.3865C28.3244 58.1837 28.6911 56.6493 28.6911 54.7877V51.7499C28.6911 49.8904 28.3244 48.356 27.5932 47.1511C26.862 45.9483 25.7904 45.0573 24.3829 44.4825C22.9731 43.9076 21.2406 43.6202 19.1809 43.6202H8.53312V62.8334H19.1809Z" fill="black"/>
<path d="M42.0266 63.2245H56.0867V18.9236H42.0266V12.4189H64.3783V63.2245H78.4384V69.7291H42.0266V63.2245Z" fill="black"/>
<path d="M147.296 69.7288C143.177 69.7288 139.641 68.8355 136.69 67.0491C133.737 65.2626 131.475 62.7178 129.905 59.4169C128.333 56.1159 127.547 52.2445 127.547 47.8049C127.547 43.3653 128.331 39.4276 129.905 36.151C131.475 32.8766 133.726 30.345 136.651 28.5586C139.576 26.7721 143.098 25.8789 147.217 25.8789C151.337 25.8789 154.87 26.7854 157.498 28.5984C160.124 30.4136 162.09 32.7793 163.39 35.7044L156.806 39.2773C156.102 37.2742 154.949 35.6911 153.352 34.5259C151.754 33.363 149.707 32.7793 147.217 32.7793C143.803 32.7793 141.148 33.8494 139.253 35.9874C137.356 38.1276 136.409 40.9001 136.409 44.3116V51.2938C136.409 54.7053 137.345 57.4801 139.213 59.6181C141.082 61.7583 143.805 62.8262 147.382 62.8262C150.037 62.8262 152.217 62.2049 153.926 60.9579C155.632 59.7131 156.973 58.0616 157.948 56.0054L164.044 59.8215C162.744 62.6913 160.713 65.0592 157.948 66.9275C155.186 68.7957 151.635 69.7288 147.301 69.7288H147.296Z" fill="black"/>
<path d="M168.271 12.417H176.56V47.3456H176.967L183.712 40.9184L195.985 29.7663H205.899L188.912 45.4884L207.849 69.7293H197.689L182.735 49.9811L176.558 55.4797V69.7293H168.269V12.417H168.271Z" fill="black"/>
<path d="M212.087 69.7293V12.417H247.443V19.806H220.704V37.0492H246.549V44.3564H220.704V62.3381H247.443V69.7271H212.087V69.7293Z" fill="black"/>
<path d="M281.18 62.2031H280.774C279.527 64.5357 277.86 66.373 275.776 67.7151C273.69 69.0571 271.103 69.7292 268.014 69.7292C263.082 69.7292 259.156 67.9693 256.229 64.4451C253.304 60.923 251.839 55.8422 251.839 49.2005C251.839 42.5588 253.301 37.4803 256.229 33.956C259.153 30.434 263.082 28.6718 268.014 28.6718C271.101 28.6718 273.69 29.3307 275.776 30.6484C277.862 31.9661 279.527 33.8167 280.774 36.1979H281.18V12.5518H289.551V69.7292H281.18V62.2031ZM271.426 63.1892C273.214 63.1892 274.852 62.9239 276.343 62.3911C277.831 61.8582 279.011 61.0358 279.878 59.9192C280.743 58.8049 281.178 57.4363 281.178 55.8135V42.5831C281.178 40.9095 280.743 39.5298 279.878 38.4398C279.011 37.3498 277.831 36.5384 276.343 36.0078C274.852 35.4749 273.214 35.2096 271.426 35.2096C268.012 35.2096 265.37 36.1869 263.501 38.1369C261.633 40.0892 260.697 42.6871 260.697 45.9305V52.4683C260.697 55.7118 261.633 58.3119 263.501 60.2619C265.37 62.2142 268.012 63.1892 271.426 63.1892Z" fill="black"/>
<path d="M333.038 79.3155C333.038 83.6246 331.235 86.815 327.634 88.8889C324.03 90.9605 318.571 91.9997 311.257 91.9997C306.487 91.9997 302.682 91.5907 299.838 90.7726C296.992 89.9546 294.933 88.7806 293.661 87.2528C292.388 85.725 291.751 83.8965 291.751 81.7696C291.751 79.4791 292.388 77.6904 293.661 76.4103C294.933 75.1279 296.709 74.1882 298.984 73.5869V72.7688C297.629 72.2249 296.56 71.4732 295.774 70.5181C294.988 69.5651 294.595 68.2961 294.595 66.713C294.595 64.5861 295.299 62.9898 296.707 61.9263C298.115 60.8628 299.931 60.058 302.153 59.5119V59.1029C299.606 57.9576 297.614 56.2795 296.18 54.0708C294.744 51.862 294.026 49.2288 294.026 46.1733C294.026 43.1177 294.731 40.5685 296.138 38.3575C297.546 36.1488 299.524 34.4441 302.072 33.2436C304.619 32.0453 307.57 31.4439 310.93 31.4439C313.964 31.4439 316.619 31.9347 318.894 32.9164V31.6075C318.894 29.9714 319.342 28.6072 320.236 27.515C321.129 26.425 322.524 25.8789 324.421 25.8789H333.035V32.671H322.388V34.7979C324.175 36.1068 325.543 37.7031 326.492 39.5846C327.438 41.4661 327.915 43.6638 327.915 46.1733C327.915 49.1182 327.21 51.7117 325.802 53.947C324.392 56.1845 322.416 57.9024 319.869 59.1029C317.322 60.3035 314.342 60.9026 310.927 60.9026C310.06 60.9026 309.221 60.8628 308.409 60.7788C307.596 60.697 306.784 60.5754 305.969 60.4118C305.319 60.5754 304.627 60.8341 303.896 61.1901C303.165 61.546 302.541 62.0081 302.028 62.5807C301.512 63.1534 301.255 63.8498 301.255 64.6679C301.255 65.9768 301.876 66.8103 303.123 67.164C304.368 67.52 305.941 67.6969 307.838 67.6969H317.183C322.818 67.6969 326.867 68.7604 329.333 70.8895C331.799 73.0164 333.031 75.8266 333.031 79.3177L333.038 79.3155ZM325.236 79.8063C325.236 78.3338 324.638 77.1465 323.448 76.2466C322.256 75.3468 320.115 74.8958 317.028 74.8958H302.561C301.476 75.4397 300.651 76.1228 300.082 76.9409C299.513 77.7589 299.228 78.7406 299.228 79.8859C299.228 81.5773 299.891 83.0077 301.22 84.1818C302.546 85.3536 304.808 85.9417 308.007 85.9417H314.59C318.003 85.9417 320.631 85.4221 322.473 84.3874C324.316 83.3504 325.236 81.8227 325.236 79.8041V79.8063ZM310.93 54.9286C313.909 54.9286 316.103 54.2211 317.513 52.8017C318.92 51.3845 319.625 49.5295 319.625 47.2367V45.028C319.625 42.7374 318.92 40.8957 317.513 39.505C316.103 38.1143 313.909 37.4179 310.93 37.4179C307.95 37.4179 305.851 38.1143 304.469 39.505C303.088 40.8957 302.397 42.7374 302.397 45.028V47.2367C302.397 49.5273 303.088 51.3845 304.469 52.8017C305.851 54.2211 308.005 54.9286 310.93 54.9286Z" fill="black"/>
<path d="M357.754 69.7288C353.474 69.7288 349.829 68.8355 346.823 67.0491C343.817 65.2626 341.5 62.7333 339.873 59.4567C338.248 56.1822 337.436 52.3241 337.436 47.8845C337.436 43.4449 338.262 39.5072 339.915 36.2306C341.566 32.9562 343.87 30.4114 346.823 28.5984C349.777 26.7854 353.204 25.8789 357.104 25.8789C361.004 25.8789 364.39 26.7589 367.265 28.5188C370.137 30.2787 372.357 32.7152 373.929 35.8282C375.501 38.9412 376.287 42.5274 376.287 46.5889V49.8368H345.971V51.38C345.971 54.7363 347.027 57.4978 349.142 59.6623C351.254 61.829 354.153 62.9102 357.838 62.9102C360.547 62.9102 362.888 62.3154 364.869 61.1237C366.847 59.9342 368.404 58.3357 369.542 56.3326L374.906 60.7987C373.551 63.3435 371.423 65.4682 368.527 67.1729C365.629 68.8775 362.038 69.731 357.759 69.731L357.754 69.7288ZM357.102 32.2929C354.935 32.2929 353.024 32.7948 351.373 33.7941C349.72 34.7957 348.406 36.1488 347.431 37.8534C346.457 39.5581 345.969 41.5214 345.969 43.7412V44.3912H367.669V43.5798C367.669 40.2236 366.707 37.5041 364.783 35.4192C362.86 33.3365 360.299 32.2929 357.102 32.2929Z" fill="black"/>
<path d="M117.705 62.6803V40.562C117.705 35.8504 116.201 32.2245 113.19 29.6796C110.184 27.137 106.08 25.8613 100.88 25.8613C96.4884 25.8613 92.8982 26.6882 90.1094 28.3398C87.3207 29.9892 85.329 31.9547 84.1367 34.2254L89.2552 38.3687C90.3927 36.5822 91.8178 35.1473 93.524 34.064C95.2324 32.9806 97.4392 32.4389 100.149 32.4389C103.238 32.4389 105.555 33.184 107.094 34.672C108.638 36.16 109.411 38.3156 109.411 41.128V44.6235H101.203C97.0286 44.6235 93.5921 45.0944 90.8802 46.0429C88.1683 46.9892 86.1525 48.3843 84.8262 50.2238C83.4999 52.0633 82.8345 54.3384 82.8345 57.049C82.8345 60.9447 84.1213 64.0312 86.6949 66.3041C89.2662 68.5792 92.6961 69.7112 96.9759 69.7112C100.283 69.7112 103.001 69.0081 105.147 67.6019C107.288 66.1958 108.761 64.2722 109.576 61.8358H109.982C109.982 61.8358 110.03 62.1873 110.166 62.7378C110.426 63.7726 111.005 65.5258 112.176 67.0182C113.342 68.5106 115.109 69.7443 117.738 69.7443C121.673 69.7443 122.848 69.7311 123.148 69.7244V62.6803H117.705ZM109.413 56.315C109.413 57.7212 108.97 58.9659 108.074 60.0493C107.178 61.1327 105.975 61.9551 104.455 62.5278C102.94 63.0938 101.205 63.379 99.2552 63.379C96.8156 63.379 94.892 62.9081 93.4845 61.9574C92.0747 61.0155 91.372 59.5629 91.372 57.615V55.9104C91.372 54.0156 92.1845 52.5697 93.8073 51.5637C95.4344 50.5621 97.9267 50.0624 101.286 50.0624H109.411V56.315H109.413Z" fill="black"/>
</g>
<defs>
<clipPath id="clip0_1506_22964">
<rect width="403" height="92" fill="white"/>
</clipPath>
</defs>
</svg>
