<svg width="240" height="240" viewBox="0 0 240 240" fill="none" xmlns="http://www.w3.org/2000/svg">
<g clip-path="url(#clip0_1506_23078)">
<path d="M196.435 44.1085V44.1251L196.449 44.1085L219.407 44.1108L240 22.3607L239.971 0.643758L239.986 0.627133H239.971V0.612883L239.957 0.627133L218.21 0.598633L196.435 21.1661V44.0942L196.421 44.1085H196.435Z" fill="#0000FF"/>
<path d="M190.963 0.475344H190.949V0.458719L190.935 0.475344L171.399 0.449219L147.329 23.603V44.0232L147.315 44.0398H147.329V44.0541L147.346 44.0374L167.79 44.0398L190.975 19.9978L190.949 0.489594L190.963 0.475344Z" fill="#0000FF"/>
<path d="M141.941 0.320203L141.926 0.322578V0.305953L141.912 0.322578L124.591 0.298828L98.2258 26.039V43.9512L98.2092 43.9678H98.2258L98.2234 43.982L98.2401 43.9654L116.173 43.9678L141.948 17.6339L141.924 0.336828L141.941 0.320203Z" fill="#0000FF"/>
<path d="M92.9181 0.166039L92.9062 0.170789V0.151789L92.8872 0.170789L77.7797 0.149414L49.1224 28.4759V43.8801L49.1058 43.8968H49.1224L49.1177 43.911L49.1343 43.8944L64.5557 43.8968L92.9229 15.2734L92.9015 0.182664L92.9181 0.166039Z" fill="#0000FF"/>
<path d="M43.8956 0.011875L43.8837 0.0166249V0L43.8647 0.0166249L30.9687 0L0.016646 30.9129V43.8091L0 43.8281H0.016646L0.01189 43.84L0.030914 43.8233L12.9387 43.8281L43.8956 12.9105L43.8789 0.0308749L43.8956 0.011875Z" fill="#0000FF"/>
<path d="M239.991 49.5896H239.976V49.5754L239.96 49.5896L220.448 49.5635L196.433 72.665V93.0638L196.416 93.0781H196.433L196.43 93.0923L196.447 93.0781H216.869L240 69.0907L239.974 49.6039L239.991 49.5896Z" fill="#0000FF"/>
<path d="M239.993 98.5507L239.979 98.553V98.5364L239.964 98.553L222.688 98.5293L196.43 124.163V142.032L196.414 142.049H196.43L196.428 142.063L196.444 142.046L214.332 142.049L240 115.822L239.979 98.5673L239.993 98.5507Z" fill="#0000FF"/>
<path d="M239.998 147.513L239.983 147.515V147.498L239.967 147.515L224.926 147.496L196.428 175.661V191.001L196.411 191.018H196.428L196.425 191.03L196.442 191.013L211.794 191.018L240 162.551L239.981 147.529L239.998 147.513Z" fill="#0000FF"/>
<path d="M240 196.476L239.988 196.479V196.462L239.971 196.479L227.164 196.462L196.425 227.161V239.969L196.409 239.986H196.425L196.421 240L196.437 239.981L209.257 239.986L240 209.282L239.983 196.493L240 196.476Z" fill="#0000FF"/>
<path d="M190.966 49.4735L190.951 49.4759V49.4593L190.935 49.4759L173.606 49.4521L147.346 75.0142V93.0095L147.332 93.0261H147.346V93.0404L147.36 93.0237L165.378 93.0261L190.973 66.7991L190.949 49.4901L190.966 49.4735Z" fill="#0000FF"/>
<path d="M141.941 49.3598L141.926 49.3622V49.3456L141.912 49.3622L126.764 49.3408L98.2615 77.3657V92.9575L98.2449 92.9718H98.2591V92.986L98.2734 92.9718L113.887 92.9742L141.945 64.5075L141.924 49.3764L141.941 49.3598Z" fill="#0000FF"/>
<path d="M92.9157 49.2428L92.9015 49.2475L92.9038 49.2309L92.8872 49.2475L79.9199 49.2285L49.1747 79.7139V92.9022L49.1581 92.9189H49.1747L49.1723 92.9331L49.189 92.9165L62.394 92.9189L92.9181 62.2126L92.8991 49.2594L92.9157 49.2428Z" fill="#0000FF"/>
<path d="M43.8766 49.1314L43.8789 49.1172L43.8623 49.1314L33.078 49.1172L0.0879985 82.0654V92.8503L0.0737305 92.8669H0.0879985L0.0856205 92.8788L0.102267 92.8622L10.9032 92.8669L43.8908 59.921L43.8742 49.1457L43.8908 49.1291L43.8766 49.1314Z" fill="#0000FF"/>
<path d="M190.968 98.4746L190.954 98.477V98.4604L190.937 98.477L175.813 98.458L147.362 126.428V141.996L147.346 142.013H147.362L147.36 142.027L147.377 142.011L162.967 142.013L190.973 113.599L190.951 98.4913L190.968 98.4746Z" fill="#0000FF"/>
<path d="M190.968 147.475L190.954 147.478L190.956 147.461L190.939 147.478L178.017 147.461L147.379 177.839V190.983L147.362 190.999H147.377V191.014L147.391 190.997L160.553 190.999L190.97 160.4L190.951 147.492L190.968 147.475Z" fill="#0000FF"/>
<path d="M190.956 196.479V196.462L190.942 196.479L180.224 196.464L147.396 229.251V239.969L147.379 239.986H147.393L147.391 239.998L147.408 239.984L158.142 239.986L190.968 207.202L190.954 196.493L190.97 196.476L190.956 196.479Z" fill="#0000FF"/>
</g>
<defs>
<clipPath id="clip0_1506_23078">
<rect width="240" height="240" fill="white"/>
</clipPath>
</defs>
</svg>
